<svg width="123" height="21" viewBox="0 0 123 21" fill="none" xmlns="http://www.w3.org/2000/svg">
<path fill-rule="evenodd" clip-rule="evenodd" d="M8.30696 0.611984C7.6286 0.740968 6.31901 1.13042 6.11396 1.26422C6.03269 1.31721 6.5341 2.55942 8.01317 5.96993C9.11852 8.5184 10.0315 10.6134 10.0421 10.6252C10.0528 10.6372 10.9668 8.54989 12.0734 5.98679L14.0853 1.32666L13.7115 1.16209C13.5059 1.07164 12.9577 0.896892 12.4931 0.773884C11.4226 0.490314 9.36527 0.410746 8.30696 0.611984ZM2.73238 3.54973C1.4692 4.87525 0.710282 6.25377 0.257064 8.04635C0.139424 8.51135 0.0335223 9.17563 0.0216072 9.52254L0 10.1532L0.530756 10.2215C2.28334 10.4471 3.8019 11.5564 4.57113 13.173C4.97829 14.0287 5.11282 14.6055 5.11282 15.4953C5.11282 16.333 4.93179 17.0347 4.48781 17.918L4.12903 18.6316L4.3764 18.8373C4.81966 19.2059 6.55918 20.0043 7.46917 20.2567C8.29985 20.4872 8.46959 20.5032 10.0478 20.4996C11.5962 20.4961 11.8115 20.4757 12.6265 20.2555C13.5189 20.0143 15.2449 19.2208 15.7253 18.831L15.9788 18.6252L15.7022 18.1548C15.2484 17.3827 15.0471 16.676 15.0018 15.6959C14.9527 14.6337 15.0645 14.0531 15.4928 13.1458C16.2433 11.556 18.2047 10.2075 19.7725 10.2032L20.1608 10.2022L20.0983 9.60005C19.8921 7.61408 19.1814 5.78484 18.0452 4.31489C17.4827 3.5871 16.5103 2.65629 16.4184 2.75736C16.3755 2.80454 15.5274 4.56912 14.5338 6.67872C10.5185 15.2031 10.1273 16.0181 10.0526 16.016C10.0098 16.0148 8.56127 13.0305 6.83358 9.38418C5.10589 5.73792 3.65785 2.74308 3.61561 2.72899C3.57346 2.7149 3.176 3.08419 2.73238 3.54973Z" fill="#00D4A8"/>
<path d="M113.562 12.0588C113.562 11.1861 113.739 10.4225 114.092 9.76802C114.446 9.10314 114.929 8.58889 115.542 8.22528C116.165 7.86167 116.861 7.67986 117.63 7.67986C118.295 7.67986 118.913 7.8357 119.484 8.14736C120.056 8.44864 120.492 8.84861 120.793 9.34728V4.82812H122.227V16.3598H120.793V14.7547C120.513 15.2637 120.097 15.6845 119.546 16.0169C118.996 16.339 118.352 16.5 117.614 16.5C116.856 16.5 116.165 16.313 115.542 15.939C114.929 15.565 114.446 15.0404 114.092 14.3651C113.739 13.6898 113.562 12.921 113.562 12.0588ZM120.793 12.0743C120.793 11.4302 120.663 10.8692 120.404 10.3914C120.144 9.91347 119.791 9.54986 119.344 9.30053C118.908 9.0408 118.424 8.91094 117.895 8.91094C117.365 8.91094 116.882 9.03561 116.445 9.28494C116.009 9.53428 115.661 9.89788 115.401 10.3758C115.142 10.8537 115.012 11.4147 115.012 12.0588C115.012 12.7133 115.142 13.2846 115.401 13.7729C115.661 14.2508 116.009 14.6196 116.445 14.8793C116.882 15.1287 117.365 15.2533 117.895 15.2533C118.424 15.2533 118.908 15.1287 119.344 14.8793C119.791 14.6196 120.144 14.2508 120.404 13.7729C120.663 13.2846 120.793 12.7185 120.793 12.0743Z" fill="#00D4A8"/>
<path d="M111.676 4.82812V16.3598H110.258V4.82812H111.676Z" fill="#00D4A8"/>
<path d="M108.384 11.7625C108.384 12.0326 108.368 12.3183 108.337 12.6196H101.512C101.564 13.4611 101.849 14.1208 102.369 14.5987C102.899 15.0662 103.538 15.2999 104.286 15.2999C104.899 15.2999 105.408 15.1597 105.813 14.8792C106.228 14.5883 106.519 14.2039 106.685 13.726H108.213C107.984 14.5467 107.527 15.2168 106.841 15.7362C106.156 16.2453 105.304 16.4998 104.286 16.4998C103.475 16.4998 102.748 16.318 102.104 15.9544C101.47 15.5908 100.972 15.0765 100.608 14.4117C100.244 13.7364 100.062 12.9572 100.062 12.0742C100.062 11.1911 100.239 10.4171 100.592 9.75226C100.946 9.08738 101.439 8.57832 102.073 8.2251C102.717 7.86149 103.454 7.67969 104.286 7.67969C105.096 7.67969 105.813 7.8563 106.436 8.20952C107.059 8.56274 107.537 9.05102 107.87 9.67435C108.213 10.2873 108.384 10.9833 108.384 11.7625ZM106.919 11.4664C106.919 10.9262 106.8 10.4639 106.561 10.0795C106.322 9.68474 105.995 9.38865 105.579 9.19126C105.174 8.98349 104.722 8.8796 104.223 8.8796C103.506 8.8796 102.893 9.10815 102.384 9.56526C101.886 10.0224 101.6 10.6561 101.527 11.4664H106.919Z" fill="#00D4A8"/>
<path d="M97.4896 6.43233C97.2195 6.43233 96.9909 6.33883 96.8039 6.15183C96.6169 5.96483 96.5234 5.73627 96.5234 5.46616C96.5234 5.19605 96.6169 4.9675 96.8039 4.7805C96.9909 4.5935 97.2195 4.5 97.4896 4.5C97.7493 4.5 97.9675 4.5935 98.1441 4.7805C98.3311 4.9675 98.4246 5.19605 98.4246 5.46616C98.4246 5.73627 98.3311 5.96483 98.1441 6.15183C97.9675 6.33883 97.7493 6.43233 97.4896 6.43233ZM98.1753 7.81924V16.3589H96.7572V7.81924H98.1753Z" fill="#00D4A8"/>
<path d="M91.0277 7.66428C91.6718 7.66428 92.2536 7.80453 92.773 8.08503C93.2925 8.35514 93.6977 8.7655 93.9885 9.31611C94.2898 9.86672 94.4405 10.5368 94.4405 11.3264V16.3598H93.038V11.5289C93.038 10.677 92.825 10.0277 92.399 9.58102C91.9731 9.12392 91.3913 8.89536 90.6537 8.89536C89.9057 8.89536 89.3084 9.12911 88.8616 9.59661C88.4253 10.0641 88.2071 10.7446 88.2071 11.638V16.3598H86.7891V4.82812H88.2071V9.03561C88.4876 8.59928 88.872 8.26164 89.3603 8.0227C89.859 7.78375 90.4148 7.66428 91.0277 7.66428Z" fill="#00D4A8"/>
<path d="M81.6703 16.4998C81.0158 16.4998 80.4289 16.3907 79.9094 16.1726C79.39 15.944 78.9796 15.6324 78.6784 15.2376C78.3771 14.8324 78.2109 14.3701 78.1797 13.8507H79.6445C79.6861 14.2766 79.8835 14.6246 80.2367 14.8947C80.6003 15.1649 81.073 15.2999 81.6548 15.2999C82.195 15.2999 82.6209 15.1804 82.9326 14.9415C83.2443 14.7026 83.4001 14.4013 83.4001 14.0377C83.4001 13.6637 83.2339 13.3884 82.9014 13.2118C82.569 13.0248 82.0547 12.8429 81.3587 12.6663C80.725 12.5001 80.2055 12.3339 79.8003 12.1677C79.4056 11.9911 79.0627 11.7365 78.7718 11.4041C78.4914 11.0613 78.3511 10.6145 78.3511 10.0639C78.3511 9.6276 78.481 9.22763 78.7407 8.86402C79.0004 8.50041 79.3692 8.21471 79.8471 8.00694C80.325 7.78877 80.8704 7.67969 81.4833 7.67969C82.4287 7.67969 83.1923 7.91863 83.7741 8.39652C84.3559 8.87441 84.6675 9.5289 84.7091 10.36H83.291C83.2598 9.91329 83.078 9.55488 82.7456 9.28477C82.4235 9.01466 81.9872 8.8796 81.4366 8.8796C80.9275 8.8796 80.5224 8.98868 80.2211 9.20685C79.9198 9.42501 79.7692 9.71071 79.7692 10.0639C79.7692 10.3444 79.8575 10.5782 80.0341 10.7652C80.2211 10.9418 80.4496 11.0872 80.7198 11.2015C81.0003 11.3054 81.3846 11.4249 81.8729 11.5599C82.4859 11.7261 82.9845 11.8924 83.3689 12.0586C83.7533 12.2144 84.0806 12.4534 84.3507 12.7754C84.6312 13.0975 84.7766 13.5182 84.787 14.0377C84.787 14.5052 84.6571 14.9259 84.3974 15.2999C84.1377 15.6739 83.7689 15.97 83.291 16.1882C82.8235 16.3959 82.2833 16.4998 81.6703 16.4998Z" fill="#00D4A8"/>
<path d="M70.0978 9.20485C70.3471 8.71658 70.7003 8.33738 71.1574 8.06727C71.6249 7.79716 72.1911 7.66211 72.856 7.66211V9.12694H72.482C70.8925 9.12694 70.0978 9.98921 70.0978 11.7138V16.3576H68.6797V7.81794H70.0978V9.20485Z" fill="#00D4A8"/>
<path d="M62.4378 16.4998C61.6379 16.4998 60.9107 16.318 60.2562 15.9544C59.6121 15.5908 59.103 15.0765 58.729 14.4117C58.3654 13.7364 58.1836 12.9572 58.1836 12.0742C58.1836 11.2015 58.3706 10.4327 58.7446 9.76785C59.129 9.09257 59.6484 8.57832 60.3029 8.2251C60.9574 7.86149 61.6898 7.67969 62.5002 7.67969C63.3105 7.67969 64.0429 7.86149 64.6974 8.2251C65.3519 8.57832 65.8662 9.08738 66.2401 9.75226C66.6245 10.4171 66.8167 11.1911 66.8167 12.0742C66.8167 12.9572 66.6193 13.7364 66.2246 14.4117C65.8402 15.0765 65.3155 15.5908 64.6507 15.9544C63.9858 16.318 63.2482 16.4998 62.4378 16.4998ZM62.4378 15.2532C62.9469 15.2532 63.4248 15.1337 63.8715 14.8947C64.3182 14.6558 64.6766 14.2974 64.9467 13.8195C65.2272 13.3416 65.3675 12.7598 65.3675 12.0742C65.3675 11.3885 65.2324 10.8067 64.9623 10.3288C64.6922 9.85096 64.339 9.49774 63.9027 9.26918C63.4663 9.03024 62.9936 8.91077 62.4846 8.91077C61.9651 8.91077 61.4873 9.03024 61.0509 9.26918C60.625 9.49774 60.2821 9.85096 60.0224 10.3288C59.7627 10.8067 59.6328 11.3885 59.6328 12.0742C59.6328 12.7702 59.7575 13.3572 60.0068 13.8351C60.2666 14.313 60.6094 14.6714 61.0353 14.9103C61.4613 15.1389 61.9288 15.2532 62.4378 15.2532Z" fill="#00D4A8"/>
<path d="M54.7667 8.98721V14.0206C54.7667 14.4362 54.855 14.7322 55.0316 14.9089C55.2082 15.0751 55.5147 15.1582 55.951 15.1582H56.9951V16.3581H55.7173C54.9277 16.3581 54.3355 16.1763 53.9408 15.8127C53.546 15.4491 53.3486 14.8517 53.3486 14.0206V8.98721H52.2422V7.81846H53.3486V5.66797H54.7667V7.81846H56.9951V8.98721H54.7667Z" fill="#00D4A8"/>
<path d="M43.0469 12.0742C43.0469 11.1911 43.2235 10.4223 43.5767 9.76785C43.9299 9.10296 44.4182 8.58871 45.0415 8.2251C45.6753 7.86149 46.3973 7.67969 47.2076 7.67969C48.2569 7.67969 49.1192 7.93421 49.7944 8.44327C50.4801 8.95232 50.932 9.65876 51.1502 10.5626H49.623C49.4776 10.0432 49.1919 9.63279 48.7659 9.33151C48.3504 9.03024 47.8309 8.8796 47.2076 8.8796C46.3973 8.8796 45.7428 9.1601 45.2441 9.7211C44.7455 10.2717 44.4961 11.0561 44.4961 12.0742C44.4961 13.1027 44.7455 13.8974 45.2441 14.4584C45.7428 15.0194 46.3973 15.2999 47.2076 15.2999C47.8309 15.2999 48.3504 15.1545 48.7659 14.8636C49.1815 14.5727 49.4672 14.1571 49.623 13.6169H51.1502C50.9216 14.4896 50.4645 15.1908 49.7789 15.7207C49.0932 16.2401 48.2361 16.4998 47.2076 16.4998C46.3973 16.4998 45.6753 16.318 45.0415 15.9544C44.4182 15.5908 43.9299 15.0765 43.5767 14.4117C43.2235 13.7468 43.0469 12.9676 43.0469 12.0742Z" fill="#00D4A8"/>
<path d="M41.6965 11.7625C41.6965 12.0326 41.6809 12.3183 41.6497 12.6196H34.8242C34.8762 13.4611 35.1619 14.1208 35.6813 14.5987C36.2112 15.0662 36.8501 15.2999 37.5981 15.2999C38.211 15.2999 38.7201 15.1597 39.1252 14.8792C39.5408 14.5883 39.8317 14.2039 39.9979 13.726H41.5251C41.2965 14.5467 40.8394 15.2168 40.1537 15.7362C39.4681 16.2453 38.6162 16.4998 37.5981 16.4998C36.7877 16.4998 36.0605 16.318 35.4164 15.9544C34.7827 15.5908 34.284 15.0765 33.9204 14.4117C33.5568 13.7364 33.375 12.9572 33.375 12.0742C33.375 11.1911 33.5516 10.4171 33.9048 9.75226C34.2581 9.08738 34.7515 8.57832 35.3852 8.2251C36.0294 7.86149 36.767 7.67969 37.5981 7.67969C38.4084 7.67969 39.1252 7.8563 39.7486 8.20952C40.3719 8.56274 40.8498 9.05102 41.1822 9.67435C41.5251 10.2873 41.6965 10.9833 41.6965 11.7625ZM40.2316 11.4664C40.2316 10.9262 40.1122 10.4639 39.8732 10.0795C39.6343 9.68474 39.307 9.38865 38.8915 9.19126C38.4863 8.98349 38.0344 8.8796 37.5357 8.8796C36.8189 8.8796 36.206 9.10815 35.6969 9.56526C35.1982 10.0224 34.9125 10.6561 34.8398 11.4664H40.2316Z" fill="#00D4A8"/>
<path d="M28.3521 15.051L31.0012 7.82031H32.5128L29.1624 16.3599H27.5106L24.1602 7.82031H25.6873L28.3521 15.051Z" fill="#00D4A8"/>
</svg>
